<svg height="512pt" viewBox="0 0 512 512" width="512pt" xmlns="http://www.w3.org/2000/svg"><path d="m271 75c0 8.285156-6.714844 15-15 15s-15-6.714844-15-15 6.714844-15 15-15 15 6.714844 15 15zm0 0" fill="#57555c"/><path d="m406 120h-90c-8.285156 0-13-6.714844-13-15v-90c0-8.285156 4.714844-15 13-15 57.898438 0 105 47.101562 105 105 0 8.285156-6.714844 15-15 15zm-77-30h60.492188c-5.980469-29.34375-31.148438-52.511719-60.492188-58.492188zm0 0" fill="#c27b48"/><path d="m316 180c-8.285156 0-13-6.714844-13-15v-60c0-8.285156 4.714844-15 13-15h60c8.285156 0 15 6.714844 15 15 0 41.355469-33.644531 75-75 75zm13-60v27.429688c12.769531-4.527344 24.902344-14.660157 29.429688-27.429688zm0 0" fill="#805142"/><path d="m136 512c-41.355469 0-75-33.644531-75-75v-61c0-8.285156 6.714844-15 15-15h60c8.285156 0 15 6.714844 15 15v121c0 8.285156-6.714844 15-15 15zm-45-121v46c0 19.554688 12.539062 36.238281 30 42.429688v-88.429688zm0 0" fill="#fea832"/><path d="m196 482c-20.039062 0-38.914062-8.023438-53.152344-22.589844-14.089844-14.410156-21.847656-33.378906-21.847656-53.410156v-30c0-8.285156 6.714844-15 15-15h60c8.285156 0 15 6.714844 15 15v91c0 8.285156-6.714844 15-15 15zm-45-91v15c0 19.589844 12.71875 36.789062 30 43.265625v-58.265625zm0 0" fill="#ff468c"/><path d="m497 361h-66.730469l19.144531-38.292969c3.707032-7.410156.703126-16.417969-6.707031-20.125-7.40625-3.703125-16.417969-.699219-20.121093 6.707031l-25.855469 51.710938h-200.730469c-8.285156 0-15 6.714844-15 15s6.714844 15 15 15h209.929688c.019531 0 .039062.003906.058593.003906.03125 0 .066407-.003906.097657-.003906h90.914062c8.285156 0 15-6.714844 15-15s-6.714844-15-15-15zm0 0" fill="#a66235"/><path d="m226 391h-150c-8.285156 0-15-6.714844-15-15s6.714844-15 15-15h150c41.355469 0 75-33.644531 75-75v-256h-60c-49.625 0-90 40.375-90 90v136c0 8.285156-6.714844 15-15 15s-15-6.714844-15-15v-136c0-66.167969 53.832031-120 120-120h75c8.285156 0 15 6.714844 15 15v271c0 57.898438-47.101562 105-105 105zm0 0" fill="#10bb67"/><path d="m208.484375 182.015625c-22.011719-3.582031-44.265625 2.554687-61.054687 16.832031-13.25 11.273438-22.042969 26.617188-25.167969 43.414063-30.355469 5.640625-54.34375 29.625-59.996094 59.976562-14.859375 2.707031-28.609375 9.789063-39.675781 20.609375-14.566406 14.238282-22.589844 33.113282-22.589844 53.152344 0 8.285156 6.714844 15 15 15h124.210938c72.667968 0 131.789062-59.121094 131.789062-131.789062 0-38.210938-26.875-71.398438-62.515625-77.195313zm-69.273437 178.984375h-106.476563c6.476563-17.28125 23.675781-30 43.265625-30h60c.542969 0 1.078125-.03125 1.605469-.089844.527343.058594 1.058593.089844 1.601562.089844 39.585938 0 71.792969-32.207031 71.792969-71.792969 0-1.605469-.191406-3.011719-.371094-4.023437-.246094-4.410156-2.425781-8.671875-6.3125-11.425782-6.757812-4.785156-16.121094-3.1875-20.910156 3.570313-2.539062 3.589844-3.351562 7.839844-2.414062 12.636719-.402344 22.699218-18.992188 41.035156-41.785157 41.035156-.542969 0-1.074219.03125-1.601562.089844-.527344-.058594-1.0625-.089844-1.605469-.089844h-42.429688c6.191407-17.460938 22.871094-30 42.429688-30 8.285156 0 15-6.714844 15-15 0-13.222656 5.78125-25.722656 15.867188-34.300781 10.222656-8.691407 23.296874-12.269531 36.800781-10.070313 21.28125 3.460938 37.332031 23.917969 37.332031 47.582032 0 56.125-45.664062 101.789062-101.789062 101.789062zm0 0" fill="#32d736"/></svg>