<?xml version="1.0" encoding="iso-8859-1"?>
<!-- Generator: Adobe Illustrator 19.0.0, SVG Export Plug-In . SVG Version: 6.00 Build 0)  -->
<svg xmlns="http://www.w3.org/2000/svg" xmlns:xlink="http://www.w3.org/1999/xlink" version="1.1" id="Capa_1" x="0px" y="0px" viewBox="0 0 512 512" style="enable-background:new 0 0 512 512;" xml:space="preserve" width="512px" height="512px">
<g>
	<g>
		<path d="M497,361.259h-66.728l19.146-38.291c3.706-7.412,0.703-16.421-6.709-20.127c-7.412-3.662-16.406-0.703-20.127,6.709    l-25.854,51.709h-97.469c19.528-19.078,31.741-45.606,31.741-75v-271c0-8.401-6.599-15-15-15h-75c-66.301,0-120,53.699-120,120    v62.8c16.509-16.509,35.533-26.1,59.7-26.1c57.51,0,94.976,57.481,89.7,115.499c-3.6,48.9-29.7,91.8-67.8,118.801H497    c8.291,0,15-6.709,15-15C512,367.968,505.291,361.259,497,361.259z M256,90.259c-8.284,0-15-6.716-15-15c0-8.286,6.716-15,15-15    s15,6.714,15,15C271,83.543,264.284,90.259,256,90.259z" fill="#FFFFFF"/>
	</g>
</g>
<g>
	<g>
		<path d="M147.4,199.258c-13.2,11.1-21.899,26.4-25.201,43.2c-0.298,0-0.899,0.3-1.199,0.3c-11.1,2.1-21.599,6.901-30.3,13.801    c-14.528,11.305-24.437,26.331-28.085,44.7h61.593c23.042,0,41.792-18.75,41.792-41.792c-3.203-12.616,11.741-23.643,23.32-15.454    c5.138,3.657,6.68,9.174,6.68,15.454c0,39.58-32.212,71.792-71.792,71.792H15.333C5.825,343.838,0,359.338,0,376.259    c0,8.401,6.599,15,15,15h94.3c69.299,0,126-53.699,131.099-121.5C246.37,204.132,187.206,165.498,147.4,199.258z" fill="#FFFFFF"/>
	</g>
</g>
<g>
	<g>
		<path d="M61,423.259v15c0,36.216,25.809,66.513,60,73.482v-88.482H61z" fill="#FFFFFF"/>
	</g>
</g>
<g>
	<g>
		<path d="M151,423.259v15c0,24.846,20.136,44.995,45,45c8.291,0,15-6.709,15-15v-45H151z" fill="#FFFFFF"/>
	</g>
</g>
<g>
	<g>
		<path d="M361,10.791v79.468h58.898C414.791,55.068,392.025,25.645,361,10.791z" fill="#FFFFFF"/>
	</g>
</g>
<g>
	<g>
		<path d="M361,120.259v44.702c14.317-10.822,24.771-26.492,28.482-44.702H361z" fill="#FFFFFF"/>
	</g>
</g>
<g>
</g>
<g>
</g>
<g>
</g>
<g>
</g>
<g>
</g>
<g>
</g>
<g>
</g>
<g>
</g>
<g>
</g>
<g>
</g>
<g>
</g>
<g>
</g>
<g>
</g>
<g>
</g>
<g>
</g>
</svg>
